{"accessors" : [{"bufferView" : 0, "byteOffset" : 0, "componentType" : 5123, "count" : 4134, "type" : "SCALAR", "max" : [3915], "min" : [0]}, {"bufferView" : 1, "byteOffset" : 0, "componentType" : 5126, "count" : 3916, "type" : "VEC3", "max" : [128.8227996826172, 128.7048797607422, 70.86815643310547], "min" : [91.17719268798828, 91.29512023925781, 0], "name" : "POSITION"}, {"bufferView" : 1, "byteOffset" : 12, "componentType" : 5126, "count" : 3916, "type" : "VEC3", "max" : [1.0000044107437134, 1, 1.0000044107437134], "min" : [-1.0000044107437134, -0.9992069005966187, -1.0000044107437134], "name" : "NORMAL"}], "asset" : {"generator" : "Aspose.3D 24.4.1", "version" : "2.0"}, "buffers" : [{"uri" : "data:application/octet-stream;base64,", "byteLength" : 102260}], "bufferViews" : [{"buffer" : 0, "byteOffset" : 0, "byteLength" : 8268, "target" : 34963}, {"buffer" : 0, "byteOffset" : 8272, "byteLength" : 93984, "byteStride" : 24, "target" : 34962}], "meshes" : [{"primitives" : [{"attributes" : {"POSITION" : 1, "NORMAL" : 2}, "indices" : 0, "mode" : 4}], "name" : ""}], "nodes" : [{"mesh" : 0, "name" : ""}], "scene" : 0, "scenes" : [{"nodes" : [0]}]}