{"accessors" : [{"bufferView" : 0, "byteOffset" : 0, "componentType" : 5123, "count" : 6444, "type" : "SCALAR", "max" : [6443], "min" : [0]}, {"bufferView" : 1, "byteOffset" : 0, "componentType" : 5126, "count" : 6444, "type" : "VEC3", "max" : [4.150000095367432, 15.800000190734863, 12.5600004196167], "min" : [-3.75, 0, 1.5], "name" : "POSITION"}, {"bufferView" : 1, "byteOffset" : 12, "componentType" : 5126, "count" : 6444, "type" : "VEC3", "max" : [1.0000044107437134, 1.0000044107437134, 1.0000044107437134], "min" : [-1.0000044107437134, -1.0000044107437134, -1.0000044107437134], "name" : "NORMAL"}], "asset" : {"generator" : "Aspose.3D 24.4.1", "version" : "2.0"}, "buffers" : [{"uri" : "data:application/octet-stream;base64,", "byteLength" : 167552}], "bufferViews" : [{"buffer" : 0, "byteOffset" : 0, "byteLength" : 12888, "target" : 34963}, {"buffer" : 0, "byteOffset" : 12892, "byteLength" : 154656, "byteStride" : 24, "target" : 34962}], "meshes" : [{"primitives" : [{"attributes" : {"POSITION" : 1, "NORMAL" : 2}, "indices" : 0, "mode" : 4}], "name" : "csg.js"}], "nodes" : [{"mesh" : 0, "name" : "csg.js"}], "scene" : 0, "scenes" : [{"nodes" : [0]}]}